<?xml version="1.0" standalone="no"?>
<!DOCTYPE svg PUBLIC "-//W3C//DTD SVG 20010904//EN"
 "http://www.w3.org/TR/2001/REC-SVG-20010904/DTD/svg10.dtd">
<svg version="1.0" xmlns="http://www.w3.org/2000/svg"
 width="900.000000pt" height="900.000000pt" viewBox="0 0 900.000000 900.000000"
 preserveAspectRatio="xMidYMid meet">
<metadata>
Created by potrace 1.14, written by Peter Selinger 2001-2017
</metadata>
<g transform="translate(0.000000,900.000000) scale(0.100000,-0.100000)"
fill="#000000" stroke="none">
<path d="M4485 8080 c-3 -5 -15 -10 -26 -10 -11 0 -22 -6 -25 -14 -3 -8 -23
-17 -45 -21 -22 -4 -39 -12 -39 -20 0 -7 -14 -16 -31 -20 -18 -4 -33 -15 -36
-25 -3 -11 -18 -21 -38 -24 -18 -4 -36 -13 -39 -21 -3 -8 -15 -15 -26 -15 -11
0 -23 -7 -26 -15 -3 -8 -21 -17 -40 -21 -19 -3 -34 -12 -34 -19 0 -7 -16 -16
-35 -19 -21 -4 -35 -13 -35 -21 0 -8 -9 -15 -20 -15 -11 0 -28 -9 -37 -20 -10
-11 -26 -20 -36 -20 -9 0 -20 -7 -23 -15 -3 -8 -21 -17 -40 -21 -19 -3 -39
-14 -44 -24 -5 -10 -23 -21 -40 -25 -16 -4 -30 -13 -30 -21 0 -8 -7 -14 -16
-14 -9 0 -27 -9 -41 -20 -14 -11 -34 -20 -43 -20 -10 0 -20 -7 -23 -14 -3 -8
-22 -18 -41 -22 -21 -3 -36 -12 -36 -20 0 -8 -6 -14 -14 -14 -7 0 -25 -9 -39
-20 -14 -11 -32 -20 -41 -20 -8 0 -21 -9 -28 -19 -8 -11 -26 -23 -42 -27 -15
-3 -30 -12 -33 -20 -2 -7 -18 -16 -35 -19 -16 -4 -32 -13 -34 -20 -3 -7 -20
-16 -39 -19 -18 -4 -36 -13 -39 -21 -3 -8 -13 -15 -22 -15 -9 0 -27 -9 -41
-20 -14 -11 -32 -20 -39 -20 -8 0 -14 -5 -14 -10 0 -6 -18 -17 -39 -26 -22 -8
-42 -22 -45 -30 -3 -8 -14 -14 -25 -14 -11 0 -23 -5 -27 -11 -3 -6 -22 -17
-40 -25 -19 -8 -34 -18 -34 -23 0 -5 -14 -12 -31 -16 -17 -4 -33 -13 -36 -20
-2 -8 -18 -17 -34 -20 -16 -4 -29 -11 -29 -16 0 -6 -13 -15 -30 -20 -16 -6
-30 -15 -30 -19 0 -5 -13 -11 -30 -15 -16 -4 -36 -15 -43 -25 -7 -10 -25 -22
-40 -25 -14 -4 -31 -13 -37 -20 -6 -8 -24 -17 -40 -20 -16 -3 -31 -13 -34 -21
-3 -8 -14 -14 -23 -14 -10 0 -26 -9 -36 -20 -9 -11 -25 -20 -36 -20 -10 0 -21
-6 -24 -14 -3 -8 -19 -17 -36 -21 -17 -4 -31 -11 -31 -16 0 -8 -34 -29 -107
-64 -18 -8 -33 -19 -33 -24 0 -5 -13 -12 -29 -16 -16 -3 -32 -12 -35 -20 -3
-8 -21 -17 -40 -20 -19 -4 -37 -13 -40 -21 -3 -8 -12 -14 -19 -14 -8 0 -24 -9
-37 -20 -13 -11 -31 -20 -42 -20 -10 0 -18 -6 -18 -14 0 -15 -21 -26 -50 -26
-10 0 -22 -9 -25 -20 -3 -11 -14 -20 -24 -20 -10 0 -30 -9 -44 -20 -14 -11
-31 -20 -39 -20 -7 0 -21 -9 -31 -20 -9 -11 -25 -20 -36 -20 -10 0 -21 -6 -24
-14 -3 -8 -19 -17 -35 -21 -17 -3 -33 -12 -35 -19 -3 -8 -21 -16 -40 -20 -19
-4 -38 -13 -41 -21 -3 -8 -11 -15 -18 -15 -7 0 -26 -11 -41 -25 l-27 -26 0
-1806 0 -1806 26 -23 c14 -13 29 -24 33 -24 4 0 18 -9 31 -20 13 -11 33 -20
46 -20 13 0 28 -9 34 -20 6 -12 21 -20 36 -20 13 0 27 -6 30 -14 3 -8 19 -18
35 -21 16 -4 33 -15 39 -24 5 -10 23 -21 40 -24 18 -4 30 -13 30 -22 0 -9 9
-15 25 -15 14 0 28 -6 31 -14 3 -8 19 -18 36 -21 16 -4 32 -13 35 -21 3 -7 20
-16 39 -20 19 -3 34 -10 34 -14 0 -11 85 -60 105 -60 9 0 19 -9 22 -19 3 -12
17 -21 39 -26 20 -3 34 -12 34 -20 0 -8 9 -15 20 -15 11 0 29 -9 40 -20 11
-11 29 -20 40 -20 10 0 24 -9 30 -20 6 -12 21 -20 35 -20 14 0 29 -8 35 -20 6
-12 21 -20 36 -20 13 0 27 -7 30 -15 4 -8 14 -15 25 -15 10 0 22 -6 26 -13 4
-7 25 -21 45 -30 20 -10 40 -22 43 -26 3 -5 19 -12 35 -16 17 -4 30 -12 30
-20 0 -7 15 -16 34 -19 19 -4 37 -13 40 -21 3 -8 15 -15 26 -15 11 0 28 -9 37
-20 10 -11 26 -20 36 -20 9 0 20 -6 23 -14 3 -8 19 -18 35 -21 16 -4 34 -15
39 -26 6 -10 19 -19 29 -19 10 0 28 -9 41 -20 13 -11 27 -20 32 -20 6 0 21 -9
35 -20 14 -11 34 -20 44 -20 11 0 19 -7 19 -15 0 -8 14 -17 34 -21 19 -3 37
-12 40 -20 3 -8 15 -14 26 -14 11 0 28 -9 37 -20 10 -11 26 -20 36 -20 9 0 20
-6 23 -14 3 -8 20 -20 37 -27 18 -7 38 -19 45 -26 7 -7 22 -13 32 -13 11 0 24
-8 29 -19 6 -10 26 -22 45 -25 19 -4 37 -13 40 -21 3 -8 12 -15 21 -15 8 0 24
-9 35 -20 11 -11 29 -20 39 -20 10 0 21 -7 24 -14 3 -8 22 -18 41 -21 22 -5
36 -14 39 -26 3 -11 14 -19 25 -19 11 0 27 -6 34 -14 8 -7 23 -16 35 -20 12
-4 24 -13 26 -20 3 -8 19 -17 35 -21 17 -3 33 -13 36 -21 3 -8 14 -14 24 -14
10 0 29 -9 42 -20 13 -11 32 -20 42 -20 10 0 21 -6 24 -14 3 -8 19 -19 35 -25
16 -5 29 -14 29 -19 0 -6 16 -13 35 -16 19 -4 35 -13 35 -20 0 -7 18 -18 39
-25 21 -6 42 -18 45 -26 3 -8 14 -15 23 -15 10 0 26 -9 36 -20 9 -11 24 -20
33 -20 9 0 22 -7 28 -15 8 -11 40 -15 139 -17 114 -3 129 -1 138 15 6 9 19 17
30 17 10 0 27 9 36 20 10 11 25 20 34 20 9 0 26 9 39 20 13 11 29 20 36 20 7
0 19 9 26 19 8 11 26 23 41 26 14 4 31 13 38 21 6 8 20 14 30 14 10 0 24 8 31
18 7 10 25 22 41 26 15 3 27 10 27 15 0 5 14 12 30 16 17 4 30 12 30 20 0 7
16 16 35 19 19 4 35 11 35 16 0 8 12 15 95 58 17 8 33 21 38 28 4 7 21 15 37
19 17 4 30 12 30 20 0 7 15 16 34 19 19 4 37 13 40 21 3 8 12 15 19 15 8 0 24
9 37 20 13 11 32 20 42 20 10 0 21 7 24 15 3 8 21 19 40 25 19 6 34 15 34 19
0 4 15 13 34 19 19 7 37 19 40 27 3 8 15 15 26 15 11 0 23 6 26 14 3 8 18 18
34 21 16 3 34 12 40 20 6 8 25 17 41 20 16 4 29 13 29 21 0 8 7 14 16 14 10 0
41 16 70 36 30 19 67 40 84 45 16 6 30 17 30 24 0 7 15 16 34 19 19 4 37 13
40 21 3 8 10 15 17 15 6 0 22 9 36 20 14 11 32 20 39 20 8 0 23 9 34 20 11 11
29 20 40 20 10 0 24 9 30 20 6 11 17 20 25 20 13 0 65 30 110 65 10 8 27 15
37 15 10 0 21 6 24 14 3 8 19 18 36 21 16 4 32 13 35 21 3 8 14 14 24 14 11 0
27 9 36 20 10 11 24 20 31 20 8 0 25 9 39 20 14 11 34 20 45 20 10 0 21 7 25
15 3 9 21 22 39 30 19 8 34 19 34 24 0 6 7 11 16 11 9 0 27 9 41 20 14 11 34
20 43 20 10 0 20 6 23 14 3 8 19 17 35 21 17 3 33 12 36 20 3 8 21 17 40 21
21 3 36 12 36 20 0 8 9 14 19 14 11 0 26 8 33 19 7 10 24 22 38 26 14 4 33 16
43 26 10 11 27 19 38 19 11 0 22 6 25 14 3 8 18 18 34 21 16 3 31 13 34 21 3
8 13 14 22 14 9 0 27 9 41 20 14 11 34 20 44 20 11 0 19 5 19 10 0 6 11 15 25
20 l25 10 0 718 0 719 -25 27 c-13 14 -29 26 -35 26 -7 0 -23 9 -37 20 -14 11
-33 20 -42 20 -9 0 -22 9 -29 20 -7 11 -23 20 -37 20 -15 0 -25 6 -25 14 0 8
-13 17 -29 21 -16 3 -32 13 -35 21 -3 8 -14 14 -24 14 -10 0 -27 9 -37 20 -10
11 -28 20 -41 20 -13 0 -28 9 -34 19 -5 11 -23 22 -39 26 -16 3 -32 13 -35 21
-3 8 -10 14 -17 14 -6 0 -22 9 -36 20 -14 11 -34 20 -44 20 -10 0 -23 9 -29
20 -7 13 -21 20 -40 20 -17 0 -30 4 -30 10 0 5 -16 16 -35 24 -19 8 -35 19
-35 25 0 5 -13 12 -30 16 -16 4 -30 13 -30 20 0 8 -15 17 -35 21 -19 3 -35 10
-35 15 0 5 -16 15 -35 23 -19 8 -35 20 -35 25 0 6 -8 11 -18 11 -11 0 -27 9
-37 20 -10 11 -26 20 -35 20 -9 0 -27 9 -40 20 -13 11 -31 20 -41 20 -10 0
-23 9 -29 20 -6 11 -20 20 -30 20 -11 0 -28 9 -37 20 -21 24 -49 26 -57 4 -3
-9 -6 -333 -6 -720 0 -612 -2 -704 -15 -704 -8 0 -19 -9 -25 -19 -5 -11 -23
-22 -39 -26 -16 -3 -32 -12 -34 -20 -3 -7 -20 -16 -37 -20 -17 -4 -34 -13 -37
-21 -3 -8 -13 -14 -23 -14 -10 0 -25 -6 -33 -14 -8 -8 -29 -22 -48 -30 -19 -9
-47 -25 -64 -36 -34 -22 -72 -40 -85 -40 -5 0 -14 -9 -20 -20 -6 -11 -19 -20
-29 -20 -10 0 -26 -9 -36 -20 -10 -11 -27 -20 -37 -20 -10 0 -21 -6 -24 -14
-3 -8 -21 -17 -40 -20 -20 -4 -34 -13 -34 -21 0 -9 -10 -15 -25 -15 -13 0 -32
-8 -42 -18 -10 -10 -44 -30 -75 -46 -31 -15 -59 -34 -62 -42 -3 -8 -14 -14
-25 -14 -11 0 -26 -6 -33 -14 -8 -7 -25 -17 -38 -21 -14 -4 -33 -16 -43 -26
-10 -11 -27 -19 -37 -19 -11 0 -20 -4 -20 -10 0 -5 -15 -17 -32 -25 -56 -27
-101 -54 -107 -63 -3 -5 -21 -13 -39 -17 -18 -3 -37 -15 -42 -26 -6 -10 -17
-19 -25 -19 -19 0 -78 -31 -100 -53 -9 -9 -27 -17 -40 -17 -14 0 -29 -9 -35
-20 -6 -11 -19 -20 -29 -20 -10 0 -24 -7 -31 -15 -7 -8 -19 -15 -26 -15 -8 0
-22 -9 -31 -20 -10 -11 -25 -20 -33 -20 -9 0 -26 -11 -38 -25 -13 -14 -33 -25
-47 -25 -14 0 -28 -6 -31 -14 -3 -8 -17 -17 -32 -21 -15 -4 -35 -15 -44 -25
-19 -20 -53 -17 -62 6 -3 8 -14 14 -23 14 -10 0 -26 9 -36 20 -9 11 -28 20
-41 20 -16 0 -27 7 -31 19 -3 11 -19 22 -35 26 -17 4 -30 11 -30 16 0 6 -13
15 -30 20 -16 6 -30 15 -30 20 0 4 -16 11 -35 15 -19 3 -35 12 -35 20 0 7 -16
16 -35 20 -19 3 -35 11 -35 18 0 6 -27 24 -60 39 -33 15 -60 31 -60 37 0 5
-18 15 -41 21 -23 7 -43 18 -46 25 -3 7 -18 16 -35 19 -16 4 -32 13 -35 20 -2
8 -17 17 -33 20 -16 3 -31 13 -34 21 -3 8 -14 14 -23 14 -10 0 -26 9 -36 20
-9 11 -25 20 -35 20 -11 0 -27 9 -37 20 -10 11 -28 20 -41 20 -14 0 -25 8 -29
20 -3 11 -12 20 -19 20 -19 0 -106 50 -106 60 0 5 -16 12 -35 16 -19 3 -35 12
-35 19 0 8 -13 16 -29 20 -16 3 -35 13 -42 21 -6 8 -19 14 -29 14 -9 0 -25 9
-35 20 -10 11 -23 20 -30 20 -7 0 -24 11 -39 25 -15 14 -36 25 -47 25 -10 0
-19 4 -19 10 0 5 -15 16 -34 24 -18 8 -37 19 -40 25 -4 6 -16 11 -27 11 -11 0
-22 6 -25 14 -3 8 -19 18 -36 21 -16 4 -32 13 -35 21 -3 7 -20 16 -39 20 -19
3 -34 12 -34 19 0 8 -16 19 -35 25 -19 6 -35 16 -35 21 0 5 -11 11 -25 15
l-25 6 0 1059 c0 1042 0 1059 19 1059 11 0 23 5 27 11 3 6 22 17 40 25 19 8
34 19 34 24 0 5 16 12 35 16 21 4 37 13 40 25 4 10 15 19 25 19 28 0 50 11 50
25 0 7 15 16 34 19 19 4 37 13 40 21 3 8 15 15 26 15 11 0 20 6 20 14 0 8 15
17 35 20 19 4 35 11 35 16 0 5 15 16 34 24 18 8 37 19 40 25 4 6 14 11 23 11
9 0 31 11 49 25 18 14 37 25 42 25 6 0 12 7 15 14 3 8 22 18 41 22 20 3 36 12
36 19 0 7 15 16 34 19 19 4 37 13 40 21 3 8 15 15 26 15 11 0 28 9 37 20 10
11 25 20 35 20 10 0 18 6 18 14 0 8 15 17 35 20 19 4 39 16 45 26 6 11 19 20
30 20 10 0 25 6 32 14 8 7 23 16 35 20 12 4 24 13 26 20 3 8 19 17 35 21 17 3
33 12 35 19 3 8 22 16 41 20 20 4 36 11 36 16 0 5 15 17 33 25 63 31 92 48
100 62 4 7 16 13 26 13 10 0 26 9 36 20 10 11 28 20 41 20 13 0 28 9 34 20 6
11 21 20 33 20 12 0 30 9 40 20 9 11 23 20 31 20 8 0 16 7 20 15 3 8 14 15 25
15 29 0 51 11 51 25 0 7 15 16 34 19 23 4 37 14 41 27 4 13 12 18 22 15 8 -3
21 -6 29 -6 8 0 14 -7 14 -15 0 -8 9 -15 20 -15 10 0 24 -9 30 -20 6 -11 19
-20 30 -20 29 0 50 -11 50 -26 0 -8 8 -14 18 -14 11 0 29 -9 42 -20 13 -11 29
-20 37 -20 7 0 16 -6 19 -14 3 -8 17 -17 32 -21 15 -4 34 -12 42 -19 8 -8 27
-16 43 -20 15 -3 27 -13 27 -21 0 -8 6 -15 13 -15 18 0 67 -24 67 -32 0 -5 6
-8 13 -8 7 0 20 -9 30 -20 9 -11 28 -20 42 -20 14 0 29 -8 35 -19 6 -12 23
-21 43 -23 20 -2 32 -8 32 -18 0 -8 9 -16 19 -18 10 -2 28 -13 39 -23 12 -10
28 -19 37 -19 8 0 23 -9 33 -20 9 -11 23 -20 31 -20 16 0 80 -39 107 -65 9 -8
23 -15 33 -15 9 0 19 -6 22 -14 3 -8 18 -18 34 -21 16 -3 34 -13 41 -21 6 -8
20 -14 30 -14 11 0 27 -9 36 -20 10 -11 23 -20 29 -20 7 0 26 -11 42 -25 17
-14 35 -25 42 -25 6 0 18 -7 26 -15 9 -8 25 -15 36 -15 11 0 22 -8 25 -19 3
-12 17 -21 38 -25 18 -4 36 -13 39 -21 3 -8 12 -15 21 -15 8 0 24 -9 35 -20
11 -11 29 -20 39 -20 10 0 21 -6 24 -14 3 -8 19 -17 36 -21 17 -4 36 -15 41
-25 5 -10 23 -21 40 -25 16 -4 30 -10 30 -15 0 -4 11 -11 25 -14 14 -4 25 -13
25 -20 0 -9 16 -17 40 -21 23 -4 40 -12 40 -20 0 -7 16 -16 35 -19 19 -4 35
-13 35 -20 0 -8 16 -17 35 -20 19 -4 34 -12 32 -18 -1 -7 7 -14 18 -16 11 -2
25 -9 30 -17 6 -7 25 -16 43 -20 18 -3 37 -15 42 -26 6 -10 17 -19 25 -19 9 0
23 -9 32 -20 10 -11 26 -20 36 -20 9 0 20 -6 23 -14 3 -8 19 -18 36 -21 16 -4
32 -13 34 -20 3 -8 23 -16 45 -20 24 -4 39 -12 39 -21 0 -8 5 -14 11 -14 6 0
22 -9 36 -20 14 -11 34 -20 44 -20 10 0 23 -9 29 -19 5 -11 24 -22 41 -26 17
-4 33 -13 36 -21 3 -7 20 -16 39 -20 19 -3 34 -12 34 -20 0 -8 8 -14 18 -14
10 0 25 -9 35 -20 9 -11 28 -20 42 -20 16 0 25 -6 25 -15 0 -9 12 -18 30 -21
16 -4 35 -13 41 -20 6 -8 18 -14 26 -14 7 0 16 -6 19 -14 3 -8 20 -20 37 -27
18 -7 43 -21 56 -31 13 -10 32 -18 41 -18 10 0 20 -6 23 -14 7 -19 68 -30 79
-14 9 15 11 1400 2 1447 -5 23 -13 33 -33 37 -14 4 -31 11 -36 18 -10 11 -49
35 -95 58 -14 7 -28 18 -33 25 -4 6 -20 14 -36 18 -16 3 -32 13 -35 21 -3 8
-15 14 -26 14 -11 0 -28 9 -37 20 -10 11 -24 20 -31 20 -8 0 -25 9 -39 20 -14
11 -34 20 -43 20 -10 0 -20 9 -23 20 -4 14 -14 20 -35 20 -21 0 -31 6 -35 20
-3 11 -14 20 -25 20 -10 0 -29 9 -42 20 -13 11 -31 20 -42 20 -10 0 -18 6 -18
14 0 8 -15 17 -35 20 -21 4 -35 13 -35 21 0 8 -8 15 -17 15 -10 0 -29 9 -43
20 -14 11 -32 20 -41 20 -9 0 -19 8 -22 19 -3 12 -17 21 -41 25 -20 4 -36 13
-36 20 0 8 -15 17 -34 20 -19 4 -36 13 -39 20 -3 8 -19 17 -35 21 -17 3 -33
13 -36 21 -3 8 -14 14 -25 14 -11 0 -25 9 -31 20 -7 13 -21 20 -40 20 -20 0
-30 5 -30 15 0 8 -6 15 -14 15 -8 0 -28 11 -44 25 -17 14 -33 25 -37 25 -19 0
-104 46 -105 56 0 7 -16 15 -35 18 -21 4 -35 13 -35 21 0 8 -8 15 -18 15 -10
0 -25 9 -35 20 -9 11 -26 20 -37 20 -11 0 -23 7 -26 15 -3 8 -22 17 -41 21
-23 4 -37 13 -40 25 -3 11 -13 19 -23 19 -9 0 -29 9 -43 20 -14 11 -28 20 -32
20 -4 0 -18 9 -32 20 -14 11 -34 20 -45 20 -10 0 -21 6 -24 14 -3 8 -19 18
-36 21 -16 4 -32 13 -35 21 -3 8 -14 14 -24 14 -11 0 -22 7 -25 15 -3 8 -21
19 -39 25 -18 6 -36 17 -39 25 -3 8 -14 15 -25 15 -11 0 -28 9 -38 19 -10 11
-30 22 -45 26 -15 4 -29 13 -32 21 -3 8 -14 14 -24 14 -10 0 -27 9 -37 20 -10
11 -29 20 -42 20 -13 0 -23 6 -23 14 0 8 -15 17 -34 20 -19 4 -37 13 -40 21
-3 8 -11 15 -19 15 -7 0 -24 11 -37 25 -13 14 -31 25 -41 25 -9 0 -22 6 -28
14 -7 8 -26 18 -42 21 -16 4 -29 12 -29 20 0 7 -15 16 -34 19 -19 4 -37 13
-40 21 -3 8 -11 15 -18 15 -8 0 -21 9 -31 20 -9 11 -28 20 -42 20 -15 0 -25 6
-25 15 0 8 -16 19 -40 25 -22 6 -40 15 -40 20 0 6 -8 10 -17 10 -10 0 -29 12
-42 25 -13 14 -31 25 -40 25 -9 0 -24 9 -34 20 -9 11 -26 20 -36 20 -11 0 -24
6 -28 13 -8 12 -57 47 -67 47 -3 0 -8 -4 -11 -10z"/>
</g>
</svg>
